<mxfile host="app.diagrams.net" modified="2024-05-22T16:00:26.687Z" agent="Mozilla/5.0 (Windows NT 10.0; Win64; x64) AppleWebKit/537.36 (KHTML, like Gecko) Chrome/125.0.0.0 Safari/537.36" etag="ewHfZW1xeeU7Q1fVNabO" version="24.4.6" type="device">
  <diagram name="Page-1" id="H1kmBrL9-HjAFVGqcHBe">
    <mxGraphModel dx="1500" dy="1646" grid="1" gridSize="10" guides="1" tooltips="1" connect="1" arrows="1" fold="1" page="1" pageScale="1" pageWidth="1600" pageHeight="900" math="0" shadow="0">
      <root>
        <mxCell id="0" />
        <mxCell id="1" parent="0" />
        <mxCell id="A0q0tctAKM_myOfa5_at-1" value="Kernel" style="rounded=0;whiteSpace=wrap;html=1;fillColor=#f8cecc;strokeColor=#b85450;" vertex="1" parent="1">
          <mxGeometry x="260" y="580" width="960" height="60" as="geometry" />
        </mxCell>
        <mxCell id="A0q0tctAKM_myOfa5_at-4" value="Shell driver skeleton" style="rounded=0;whiteSpace=wrap;html=1;fillColor=#dae8fc;strokeColor=#6c8ebf;" vertex="1" parent="1">
          <mxGeometry x="330" y="440" width="120" height="60" as="geometry" />
        </mxCell>
        <mxCell id="A0q0tctAKM_myOfa5_at-5" value="Sysmon driver skeleton" style="rounded=0;whiteSpace=wrap;html=1;fillColor=#dae8fc;strokeColor=#6c8ebf;" vertex="1" parent="1">
          <mxGeometry x="820" y="440" width="120" height="60" as="geometry" />
        </mxCell>
        <mxCell id="A0q0tctAKM_myOfa5_at-6" value="Timer driver skeleton" style="rounded=0;whiteSpace=wrap;html=1;fillColor=#dae8fc;strokeColor=#6c8ebf;" vertex="1" parent="1">
          <mxGeometry x="1030" y="440" width="120" height="60" as="geometry" />
        </mxCell>
        <mxCell id="A0q0tctAKM_myOfa5_at-7" value="Trace driver skeleton" style="rounded=0;whiteSpace=wrap;html=1;fillColor=#dae8fc;strokeColor=#6c8ebf;" vertex="1" parent="1">
          <mxGeometry x="680" y="440" width="120" height="60" as="geometry" />
        </mxCell>
        <mxCell id="A0q0tctAKM_myOfa5_at-74" style="edgeStyle=orthogonalEdgeStyle;rounded=0;orthogonalLoop=1;jettySize=auto;html=1;exitX=0.5;exitY=0;exitDx=0;exitDy=0;entryX=0.75;entryY=0;entryDx=0;entryDy=0;" edge="1" parent="1" source="A0q0tctAKM_myOfa5_at-8" target="A0q0tctAKM_myOfa5_at-24">
          <mxGeometry relative="1" as="geometry">
            <Array as="points">
              <mxPoint x="1160" />
              <mxPoint x="1050" />
            </Array>
          </mxGeometry>
        </mxCell>
        <mxCell id="A0q0tctAKM_myOfa5_at-8" value="Time service" style="rounded=0;whiteSpace=wrap;html=1;fillColor=#d5e8d4;strokeColor=#82b366;" vertex="1" parent="1">
          <mxGeometry x="1100" y="30" width="120" height="60" as="geometry" />
        </mxCell>
        <mxCell id="A0q0tctAKM_myOfa5_at-65" style="edgeStyle=orthogonalEdgeStyle;rounded=0;orthogonalLoop=1;jettySize=auto;html=1;exitX=0.5;exitY=0;exitDx=0;exitDy=0;entryX=0.5;entryY=0;entryDx=0;entryDy=0;" edge="1" parent="1" source="A0q0tctAKM_myOfa5_at-24" target="A0q0tctAKM_myOfa5_at-59">
          <mxGeometry relative="1" as="geometry">
            <Array as="points">
              <mxPoint x="1020" y="-20" />
              <mxPoint x="320" y="-20" />
            </Array>
          </mxGeometry>
        </mxCell>
        <mxCell id="A0q0tctAKM_myOfa5_at-66" style="edgeStyle=orthogonalEdgeStyle;rounded=0;orthogonalLoop=1;jettySize=auto;html=1;exitX=0.25;exitY=1;exitDx=0;exitDy=0;entryX=0.75;entryY=0;entryDx=0;entryDy=0;" edge="1" parent="1" source="A0q0tctAKM_myOfa5_at-24" target="A0q0tctAKM_myOfa5_at-17">
          <mxGeometry relative="1" as="geometry">
            <Array as="points">
              <mxPoint x="990" y="110" />
              <mxPoint x="910" y="110" />
            </Array>
          </mxGeometry>
        </mxCell>
        <mxCell id="A0q0tctAKM_myOfa5_at-75" style="edgeStyle=orthogonalEdgeStyle;rounded=0;orthogonalLoop=1;jettySize=auto;html=1;exitX=0.75;exitY=1;exitDx=0;exitDy=0;entryX=0.5;entryY=0;entryDx=0;entryDy=0;" edge="1" parent="1" source="A0q0tctAKM_myOfa5_at-24" target="A0q0tctAKM_myOfa5_at-67">
          <mxGeometry relative="1" as="geometry">
            <Array as="points">
              <mxPoint x="1050" y="260" />
              <mxPoint x="950" y="260" />
            </Array>
          </mxGeometry>
        </mxCell>
        <mxCell id="A0q0tctAKM_myOfa5_at-24" value="Signal service" style="rounded=0;whiteSpace=wrap;html=1;fillColor=#d5e8d4;strokeColor=#82b366;" vertex="1" parent="1">
          <mxGeometry x="960" y="30" width="120" height="60" as="geometry" />
        </mxCell>
        <mxCell id="A0q0tctAKM_myOfa5_at-25" value="" style="endArrow=classic;startArrow=classic;html=1;rounded=0;" edge="1" parent="1" target="A0q0tctAKM_myOfa5_at-24">
          <mxGeometry width="50" height="50" relative="1" as="geometry">
            <mxPoint x="1019.41" y="580" as="sourcePoint" />
            <mxPoint x="1019.41" y="139.99999999999977" as="targetPoint" />
          </mxGeometry>
        </mxCell>
        <mxCell id="A0q0tctAKM_myOfa5_at-27" value="" style="endArrow=classic;html=1;rounded=0;entryX=0.189;entryY=-0.02;entryDx=0;entryDy=0;entryPerimeter=0;" edge="1" parent="1" source="A0q0tctAKM_myOfa5_at-7">
          <mxGeometry width="50" height="50" relative="1" as="geometry">
            <mxPoint x="740.5" y="361" as="sourcePoint" />
            <mxPoint x="739.5" y="580" as="targetPoint" />
          </mxGeometry>
        </mxCell>
        <mxCell id="A0q0tctAKM_myOfa5_at-28" value="" style="endArrow=classic;html=1;rounded=0;entryX=0.189;entryY=-0.02;entryDx=0;entryDy=0;entryPerimeter=0;" edge="1" parent="1" source="A0q0tctAKM_myOfa5_at-5">
          <mxGeometry width="50" height="50" relative="1" as="geometry">
            <mxPoint x="880.5" y="361" as="sourcePoint" />
            <mxPoint x="879.5" y="580" as="targetPoint" />
          </mxGeometry>
        </mxCell>
        <mxCell id="A0q0tctAKM_myOfa5_at-32" style="edgeStyle=orthogonalEdgeStyle;rounded=0;orthogonalLoop=1;jettySize=auto;html=1;entryX=0.5;entryY=0;entryDx=0;entryDy=0;" edge="1" parent="1" source="A0q0tctAKM_myOfa5_at-31" target="A0q0tctAKM_myOfa5_at-7">
          <mxGeometry relative="1" as="geometry" />
        </mxCell>
        <mxCell id="A0q0tctAKM_myOfa5_at-80" style="edgeStyle=orthogonalEdgeStyle;rounded=0;orthogonalLoop=1;jettySize=auto;html=1;exitX=0.75;exitY=1;exitDx=0;exitDy=0;entryX=0.5;entryY=1;entryDx=0;entryDy=0;" edge="1" parent="1" source="A0q0tctAKM_myOfa5_at-31" target="A0q0tctAKM_myOfa5_at-8">
          <mxGeometry relative="1" as="geometry">
            <Array as="points">
              <mxPoint x="770" y="230" />
              <mxPoint x="1160" y="230" />
            </Array>
          </mxGeometry>
        </mxCell>
        <mxCell id="A0q0tctAKM_myOfa5_at-81" style="edgeStyle=orthogonalEdgeStyle;rounded=0;orthogonalLoop=1;jettySize=auto;html=1;exitX=0.25;exitY=1;exitDx=0;exitDy=0;entryX=1;entryY=0.5;entryDx=0;entryDy=0;" edge="1" parent="1" source="A0q0tctAKM_myOfa5_at-31" target="A0q0tctAKM_myOfa5_at-37">
          <mxGeometry relative="1" as="geometry" />
        </mxCell>
        <mxCell id="A0q0tctAKM_myOfa5_at-82" style="edgeStyle=orthogonalEdgeStyle;rounded=0;orthogonalLoop=1;jettySize=auto;html=1;exitX=0.25;exitY=0;exitDx=0;exitDy=0;entryX=0.75;entryY=0;entryDx=0;entryDy=0;" edge="1" parent="1" source="A0q0tctAKM_myOfa5_at-31" target="A0q0tctAKM_myOfa5_at-59">
          <mxGeometry relative="1" as="geometry">
            <Array as="points">
              <mxPoint x="710" y="110" />
              <mxPoint x="350" y="110" />
            </Array>
          </mxGeometry>
        </mxCell>
        <mxCell id="A0q0tctAKM_myOfa5_at-31" value="Trace service" style="rounded=0;whiteSpace=wrap;html=1;fillColor=#d5e8d4;strokeColor=#82b366;" vertex="1" parent="1">
          <mxGeometry x="680" y="140" width="120" height="60" as="geometry" />
        </mxCell>
        <mxCell id="A0q0tctAKM_myOfa5_at-35" style="edgeStyle=orthogonalEdgeStyle;rounded=0;orthogonalLoop=1;jettySize=auto;html=1;exitX=0.5;exitY=1;exitDx=0;exitDy=0;entryX=0.5;entryY=0;entryDx=0;entryDy=0;" edge="1" parent="1" source="A0q0tctAKM_myOfa5_at-34" target="A0q0tctAKM_myOfa5_at-3">
          <mxGeometry relative="1" as="geometry" />
        </mxCell>
        <mxCell id="A0q0tctAKM_myOfa5_at-46" style="edgeStyle=orthogonalEdgeStyle;rounded=0;orthogonalLoop=1;jettySize=auto;html=1;exitX=0.25;exitY=1;exitDx=0;exitDy=0;entryX=0.75;entryY=0;entryDx=0;entryDy=0;" edge="1" parent="1" source="A0q0tctAKM_myOfa5_at-34" target="A0q0tctAKM_myOfa5_at-37">
          <mxGeometry relative="1" as="geometry" />
        </mxCell>
        <mxCell id="A0q0tctAKM_myOfa5_at-34" value="GCP service" style="rounded=0;whiteSpace=wrap;html=1;fillColor=#d5e8d4;strokeColor=#82b366;" vertex="1" parent="1">
          <mxGeometry x="540" y="140" width="120" height="60" as="geometry" />
        </mxCell>
        <mxCell id="A0q0tctAKM_myOfa5_at-37" value="Mutex service" style="rounded=0;whiteSpace=wrap;html=1;fillColor=#fff2cc;strokeColor=#d6b656;" vertex="1" parent="1">
          <mxGeometry x="470" y="300" width="120" height="60" as="geometry" />
        </mxCell>
        <mxCell id="A0q0tctAKM_myOfa5_at-39" value="" style="endArrow=classic;html=1;rounded=0;entryX=0.189;entryY=-0.02;entryDx=0;entryDy=0;entryPerimeter=0;exitX=0.5;exitY=1;exitDx=0;exitDy=0;" edge="1" parent="1" source="A0q0tctAKM_myOfa5_at-3">
          <mxGeometry width="50" height="50" relative="1" as="geometry">
            <mxPoint x="650" y="520" as="sourcePoint" />
            <mxPoint x="599.5" y="580" as="targetPoint" />
          </mxGeometry>
        </mxCell>
        <mxCell id="A0q0tctAKM_myOfa5_at-43" value="" style="endArrow=classic;startArrow=classic;html=1;rounded=0;entryX=0.5;entryY=1;entryDx=0;entryDy=0;" edge="1" parent="1" target="A0q0tctAKM_myOfa5_at-4">
          <mxGeometry width="50" height="50" relative="1" as="geometry">
            <mxPoint x="390" y="580" as="sourcePoint" />
            <mxPoint x="390" y="520" as="targetPoint" />
          </mxGeometry>
        </mxCell>
        <mxCell id="A0q0tctAKM_myOfa5_at-47" value="" style="endArrow=classic;html=1;rounded=0;entryX=0.5;entryY=1;entryDx=0;entryDy=0;exitX=0.5;exitY=1;exitDx=0;exitDy=0;" edge="1" parent="1" source="A0q0tctAKM_myOfa5_at-3" target="A0q0tctAKM_myOfa5_at-3">
          <mxGeometry width="50" height="50" relative="1" as="geometry">
            <mxPoint x="600" y="390" as="sourcePoint" />
            <mxPoint x="599.5" y="580" as="targetPoint" />
          </mxGeometry>
        </mxCell>
        <mxCell id="A0q0tctAKM_myOfa5_at-3" value="CRC driver skeleton" style="rounded=0;whiteSpace=wrap;html=1;fillColor=#dae8fc;strokeColor=#6c8ebf;" vertex="1" parent="1">
          <mxGeometry x="540" y="440" width="120" height="60" as="geometry" />
        </mxCell>
        <mxCell id="A0q0tctAKM_myOfa5_at-51" value="" style="endArrow=classic;startArrow=classic;html=1;rounded=0;entryX=0.25;entryY=1;entryDx=0;entryDy=0;" edge="1" parent="1" target="A0q0tctAKM_myOfa5_at-17">
          <mxGeometry width="50" height="50" relative="1" as="geometry">
            <mxPoint x="810" y="580" as="sourcePoint" />
            <mxPoint x="630" y="200" as="targetPoint" />
            <Array as="points">
              <mxPoint x="810" y="250" />
              <mxPoint x="850" y="250" />
            </Array>
          </mxGeometry>
        </mxCell>
        <mxCell id="A0q0tctAKM_myOfa5_at-52" style="edgeStyle=orthogonalEdgeStyle;rounded=0;orthogonalLoop=1;jettySize=auto;html=1;exitX=0.25;exitY=0;exitDx=0;exitDy=0;entryX=0.75;entryY=0;entryDx=0;entryDy=0;" edge="1" parent="1" source="A0q0tctAKM_myOfa5_at-17" target="A0q0tctAKM_myOfa5_at-31">
          <mxGeometry relative="1" as="geometry">
            <mxPoint x="710" y="260" as="targetPoint" />
            <Array as="points">
              <mxPoint x="850" y="110" />
              <mxPoint x="770" y="110" />
            </Array>
          </mxGeometry>
        </mxCell>
        <mxCell id="A0q0tctAKM_myOfa5_at-54" style="edgeStyle=orthogonalEdgeStyle;rounded=0;orthogonalLoop=1;jettySize=auto;html=1;exitX=0.5;exitY=1;exitDx=0;exitDy=0;entryX=0.5;entryY=0;entryDx=0;entryDy=0;" edge="1" parent="1" source="A0q0tctAKM_myOfa5_at-53" target="A0q0tctAKM_myOfa5_at-37">
          <mxGeometry relative="1" as="geometry" />
        </mxCell>
        <mxCell id="A0q0tctAKM_myOfa5_at-53" value="Message serive" style="rounded=0;whiteSpace=wrap;html=1;fillColor=#d5e8d4;strokeColor=#82b366;" vertex="1" parent="1">
          <mxGeometry x="400" y="140" width="120" height="60" as="geometry" />
        </mxCell>
        <mxCell id="A0q0tctAKM_myOfa5_at-61" style="edgeStyle=orthogonalEdgeStyle;rounded=0;orthogonalLoop=1;jettySize=auto;html=1;exitX=0.75;exitY=1;exitDx=0;exitDy=0;entryX=0.25;entryY=0;entryDx=0;entryDy=0;" edge="1" parent="1" source="A0q0tctAKM_myOfa5_at-59" target="A0q0tctAKM_myOfa5_at-37">
          <mxGeometry relative="1" as="geometry">
            <Array as="points">
              <mxPoint x="350" y="270" />
              <mxPoint x="500" y="270" />
            </Array>
          </mxGeometry>
        </mxCell>
        <mxCell id="A0q0tctAKM_myOfa5_at-62" style="edgeStyle=orthogonalEdgeStyle;rounded=0;orthogonalLoop=1;jettySize=auto;html=1;exitX=0.25;exitY=1;exitDx=0;exitDy=0;entryX=0.25;entryY=0;entryDx=0;entryDy=0;" edge="1" parent="1" source="A0q0tctAKM_myOfa5_at-59" target="A0q0tctAKM_myOfa5_at-4">
          <mxGeometry relative="1" as="geometry">
            <Array as="points">
              <mxPoint x="290" y="400" />
              <mxPoint x="360" y="400" />
            </Array>
          </mxGeometry>
        </mxCell>
        <mxCell id="A0q0tctAKM_myOfa5_at-59" value="Queue service" style="rounded=0;whiteSpace=wrap;html=1;fillColor=#d5e8d4;strokeColor=#82b366;" vertex="1" parent="1">
          <mxGeometry x="260" y="140" width="120" height="60" as="geometry" />
        </mxCell>
        <mxCell id="A0q0tctAKM_myOfa5_at-64" style="edgeStyle=orthogonalEdgeStyle;rounded=0;orthogonalLoop=1;jettySize=auto;html=1;exitX=0.5;exitY=1;exitDx=0;exitDy=0;entryX=0.5;entryY=0;entryDx=0;entryDy=0;" edge="1" parent="1" source="A0q0tctAKM_myOfa5_at-63" target="A0q0tctAKM_myOfa5_at-4">
          <mxGeometry relative="1" as="geometry" />
        </mxCell>
        <mxCell id="A0q0tctAKM_myOfa5_at-63" value="Shell service" style="rounded=0;whiteSpace=wrap;html=1;fillColor=#d5e8d4;strokeColor=#82b366;" vertex="1" parent="1">
          <mxGeometry x="330" y="300" width="120" height="60" as="geometry" />
        </mxCell>
        <mxCell id="A0q0tctAKM_myOfa5_at-67" value="Trigger service" style="rounded=0;whiteSpace=wrap;html=1;fillColor=#fff2cc;strokeColor=#d6b656;" vertex="1" parent="1">
          <mxGeometry x="890" y="300" width="120" height="60" as="geometry" />
        </mxCell>
        <mxCell id="A0q0tctAKM_myOfa5_at-70" style="edgeStyle=orthogonalEdgeStyle;rounded=0;orthogonalLoop=1;jettySize=auto;html=1;exitX=0;exitY=0.5;exitDx=0;exitDy=0;entryX=0.5;entryY=0;entryDx=0;entryDy=0;" edge="1" parent="1" source="A0q0tctAKM_myOfa5_at-69" target="A0q0tctAKM_myOfa5_at-34">
          <mxGeometry relative="1" as="geometry" />
        </mxCell>
        <mxCell id="A0q0tctAKM_myOfa5_at-71" style="edgeStyle=orthogonalEdgeStyle;rounded=0;orthogonalLoop=1;jettySize=auto;html=1;exitX=0;exitY=0.75;exitDx=0;exitDy=0;entryX=0.75;entryY=0;entryDx=0;entryDy=0;" edge="1" parent="1" source="A0q0tctAKM_myOfa5_at-69" target="A0q0tctAKM_myOfa5_at-3">
          <mxGeometry relative="1" as="geometry">
            <Array as="points">
              <mxPoint x="670" y="75" />
              <mxPoint x="670" y="250" />
              <mxPoint x="630" y="250" />
            </Array>
          </mxGeometry>
        </mxCell>
        <mxCell id="A0q0tctAKM_myOfa5_at-72" style="edgeStyle=orthogonalEdgeStyle;rounded=0;orthogonalLoop=1;jettySize=auto;html=1;exitX=0.5;exitY=1;exitDx=0;exitDy=0;entryX=0.5;entryY=0;entryDx=0;entryDy=0;" edge="1" parent="1" source="A0q0tctAKM_myOfa5_at-17" target="A0q0tctAKM_myOfa5_at-5">
          <mxGeometry relative="1" as="geometry" />
        </mxCell>
        <mxCell id="A0q0tctAKM_myOfa5_at-76" style="edgeStyle=orthogonalEdgeStyle;rounded=0;orthogonalLoop=1;jettySize=auto;html=1;exitX=0.5;exitY=0;exitDx=0;exitDy=0;entryX=0.75;entryY=0;entryDx=0;entryDy=0;" edge="1" parent="1" source="A0q0tctAKM_myOfa5_at-69" target="A0q0tctAKM_myOfa5_at-8">
          <mxGeometry relative="1" as="geometry">
            <Array as="points">
              <mxPoint x="880" y="-40" />
              <mxPoint x="1190" y="-40" />
            </Array>
          </mxGeometry>
        </mxCell>
        <mxCell id="A0q0tctAKM_myOfa5_at-69" value="Sysmon service" style="rounded=0;whiteSpace=wrap;html=1;fillColor=#d5e8d4;strokeColor=#82b366;" vertex="1" parent="1">
          <mxGeometry x="820" y="30" width="120" height="60" as="geometry" />
        </mxCell>
        <mxCell id="A0q0tctAKM_myOfa5_at-79" value="" style="edgeStyle=orthogonalEdgeStyle;rounded=0;orthogonalLoop=1;jettySize=auto;html=1;exitX=0.5;exitY=1;exitDx=0;exitDy=0;entryX=0.5;entryY=0;entryDx=0;entryDy=0;" edge="1" parent="1" source="A0q0tctAKM_myOfa5_at-69" target="A0q0tctAKM_myOfa5_at-17">
          <mxGeometry relative="1" as="geometry">
            <mxPoint x="880" y="90" as="sourcePoint" />
            <mxPoint x="880" y="440" as="targetPoint" />
          </mxGeometry>
        </mxCell>
        <mxCell id="A0q0tctAKM_myOfa5_at-17" value="Error service" style="rounded=0;whiteSpace=wrap;html=1;fillColor=#d5e8d4;strokeColor=#82b366;" vertex="1" parent="1">
          <mxGeometry x="820" y="140" width="120" height="60" as="geometry" />
        </mxCell>
        <mxCell id="A0q0tctAKM_myOfa5_at-83" value="" style="endArrow=classic;startArrow=classic;html=1;rounded=0;entryX=0.5;entryY=1;entryDx=0;entryDy=0;" edge="1" parent="1">
          <mxGeometry width="50" height="50" relative="1" as="geometry">
            <mxPoint x="1089.4099999999999" y="580" as="sourcePoint" />
            <mxPoint x="1089.4099999999999" y="500" as="targetPoint" />
          </mxGeometry>
        </mxCell>
        <mxCell id="A0q0tctAKM_myOfa5_at-84" value="" style="endArrow=classic;html=1;rounded=0;exitX=0.5;exitY=1;exitDx=0;exitDy=0;" edge="1" parent="1" source="A0q0tctAKM_myOfa5_at-37">
          <mxGeometry width="50" height="50" relative="1" as="geometry">
            <mxPoint x="529.29" y="470" as="sourcePoint" />
            <mxPoint x="529.29" y="580" as="targetPoint" />
          </mxGeometry>
        </mxCell>
        <mxCell id="A0q0tctAKM_myOfa5_at-85" value="" style="endArrow=classic;html=1;rounded=0;exitX=0.5;exitY=1;exitDx=0;exitDy=0;" edge="1" parent="1">
          <mxGeometry width="50" height="50" relative="1" as="geometry">
            <mxPoint x="950" y="360" as="sourcePoint" />
            <mxPoint x="949.29" y="580" as="targetPoint" />
          </mxGeometry>
        </mxCell>
      </root>
    </mxGraphModel>
  </diagram>
</mxfile>
